# xmcd
# 
# Track frame offsets:
#     150
#     20312
#     36370
#     57554
#     76000
#     89695
#     104376
#     122817
#     141324
#     152985
#     174773
#     198799
# 
# Disc length: 2875
# 
# Revision: 0
# Processed by: cddbd v1.5.2PL0 Copyright (c) Steve Scherf et al.
# Submitted via: fre:ac v1.0.31
# 
DISCID=9b0b390c
DTITLE=Mariana Ramos - Bibia
DYEAR=2004
DGENRE=Folk
TTITLE0=Cumarde mozinha
TTITLE1=Amiga d'nh' amigo
TTITLE2=Odju dAgu
TTITLE3=Sem Raza
TTITLE4=Ilidio
TTITLE5=Mocos di Gala
TTITLE6=Desobidencia
TTITLE7=Nos Sentimente ca Concorda
TTITLE8=Canta na Esperanca
TTITLE9=Visao di Cretchen
TTITLE10=Mundo cum Paz e Amor
TTITLE11=Serpentina
EXTD=
EXTT0=
EXTT1=
EXTT2=
EXTT3=
EXTT4=
EXTT5=
EXTT6=
EXTT7=
EXTT8=
EXTT9=
EXTT10=
EXTT11=
PLAYORDER=
